<?xml version="1.0" standalone="no"?>
<!DOCTYPE svg PUBLIC "-//W3C//DTD SVG 20010904//EN"
 "http://www.w3.org/TR/2001/REC-SVG-20010904/DTD/svg10.dtd">
<svg version="1.0" xmlns="http://www.w3.org/2000/svg"
 width="512.000000pt" height="512.000000pt" viewBox="0 0 512.000000 512.000000"
 preserveAspectRatio="xMidYMid meet">
<metadata>
Created by potrace 1.14, written by Peter Selinger 2001-2017
</metadata>
<g transform="translate(0.000000,512.000000) scale(0.100000,-0.100000)"
fill="#000000" stroke="none">
<path d="M4916 5105 c-9 -10 -16 -33 -16 -55 0 -57 -19 -138 -46 -196 -53
-112 -156 -190 -287 -218 -75 -15 -233 -14 -317 2 -30 6 -71 14 -90 16 -19 3
-47 8 -62 11 -68 13 -238 42 -289 51 -60 9 -322 12 -379 4 -130 -19 -230 -49
-328 -99 -270 -136 -432 -353 -470 -630 -12 -94 -5 -306 14 -396 4 -16 4 -28
1 -25 -4 3 -89 87 -189 186 -101 100 -192 186 -203 191 -31 16 -64 -2 -81 -44
-34 -81 -59 -203 -68 -339 -5 -78 16 -221 50 -339 4 -14 -7 -7 -37 22 -81 78
-110 75 -204 -20 -106 -106 -107 -124 -12 -224 38 -40 67 -76 65 -81 -1 -4
-113 -158 -248 -341 -135 -183 -252 -342 -260 -355 -8 -12 -50 -69 -92 -127
-146 -197 -459 -624 -546 -744 -47 -66 -90 -124 -95 -130 -4 -5 -56 -75 -113
-155 -58 -80 -141 -192 -183 -250 -395 -535 -411 -560 -411 -617 0 -145 157
-249 280 -185 27 14 2002 1456 2535 1852 50 36 96 70 103 74 9 5 36 -14 82
-58 89 -87 112 -88 190 -13 91 87 112 117 106 152 -4 16 -25 50 -49 74 -27 28
-35 41 -22 37 46 -17 137 -37 199 -44 232 -28 536 42 536 125 0 9 -110 127
-245 262 -134 135 -243 247 -241 248 2 2 35 -2 72 -9 43 -8 151 -13 284 -12
183 0 229 3 310 21 182 41 292 100 429 229 79 74 183 211 229 299 33 65 82
203 82 232 0 41 -33 46 -102 17 -143 -60 -257 -85 -406 -87 -108 -2 -161 5
-233 32 -102 39 -147 109 -116 183 34 82 124 137 357 221 280 101 406 170 508
283 206 224 250 605 104 904 -39 80 -64 97 -96 65z"/>
</g>
</svg>
